<svg xmlns="http://www.w3.org/2000/svg" viewBox="0 0 32 32" width="128" height="128" shape-rendering="crispEdges">
  <!-- Hair background -->
  <rect x="8" y="2" width="2" height="2" fill="#8B4513"/>
  <rect x="10" y="2" width="2" height="2" fill="#8B4513"/>
  <rect x="12" y="2" width="2" height="2" fill="#8B4513"/>
  <rect x="14" y="2" width="2" height="2" fill="#8B4513"/>
  <rect x="16" y="2" width="2" height="2" fill="#8B4513"/>
  <rect x="18" y="2" width="2" height="2" fill="#8B4513"/>
  <rect x="20" y="2" width="2" height="2" fill="#8B4513"/>
  <rect x="22" y="2" width="2" height="2" fill="#8B4513"/>

  <rect x="6" y="4" width="2" height="2" fill="#8B4513"/>
  <rect x="8" y="4" width="2" height="2" fill="#5C2E00"/>
  <rect x="10" y="4" width="2" height="2" fill="#5C2E00"/>
  <rect x="12" y="4" width="2" height="2" fill="#5C2E00"/>
  <rect x="14" y="4" width="2" height="2" fill="#5C2E00"/>
  <rect x="16" y="4" width="2" height="2" fill="#5C2E00"/>
  <rect x="18" y="4" width="2" height="2" fill="#5C2E00"/>
  <rect x="20" y="4" width="2" height="2" fill="#5C2E00"/>
  <rect x="22" y="4" width="2" height="2" fill="#5C2E00"/>
  <rect x="24" y="4" width="2" height="2" fill="#8B4513"/>

  <!-- Red flower/accessory -->
  <rect x="18" y="4" width="2" height="2" fill="#FF2222"/>
  <rect x="20" y="4" width="2" height="2" fill="#CC0000"/>

  <rect x="6" y="6" width="2" height="2" fill="#8B4513"/>
  <rect x="8" y="6" width="2" height="2" fill="#5C2E00"/>
  <rect x="10" y="6" width="2" height="2" fill="#5C2E00"/>
  <rect x="12" y="6" width="2" height="2" fill="#5C2E00"/>
  <rect x="14" y="6" width="2" height="2" fill="#5C2E00"/>
  <rect x="16" y="6" width="2" height="2" fill="#5C2E00"/>
  <rect x="18" y="6" width="2" height="2" fill="#5C2E00"/>
  <rect x="20" y="6" width="2" height="2" fill="#5C2E00"/>
  <rect x="22" y="6" width="2" height="2" fill="#5C2E00"/>
  <rect x="24" y="6" width="2" height="2" fill="#8B4513"/>

  <!-- Hair sides + face row 1 -->
  <rect x="4" y="8" width="2" height="2" fill="#8B4513"/>
  <rect x="6" y="8" width="2" height="2" fill="#5C2E00"/>
  <rect x="8" y="8" width="2" height="2" fill="#F5C5A3"/>
  <rect x="10" y="8" width="2" height="2" fill="#F5C5A3"/>
  <rect x="12" y="8" width="2" height="2" fill="#F5C5A3"/>
  <rect x="14" y="8" width="2" height="2" fill="#F5C5A3"/>
  <rect x="16" y="8" width="2" height="2" fill="#F5C5A3"/>
  <rect x="18" y="8" width="2" height="2" fill="#F5C5A3"/>
  <rect x="20" y="8" width="2" height="2" fill="#F5C5A3"/>
  <rect x="22" y="8" width="2" height="2" fill="#5C2E00"/>
  <rect x="24" y="8" width="2" height="2" fill="#8B4513"/>

  <!-- Face row 2 - eyes -->
  <rect x="4" y="10" width="2" height="2" fill="#8B4513"/>
  <rect x="6" y="10" width="2" height="2" fill="#5C2E00"/>
  <rect x="8" y="10" width="2" height="2" fill="#F5C5A3"/>
  <rect x="10" y="10" width="2" height="2" fill="#4A8B5C"/>
  <rect x="12" y="10" width="2" height="2" fill="#F5C5A3"/>
  <rect x="14" y="10" width="2" height="2" fill="#F5C5A3"/>
  <rect x="16" y="10" width="2" height="2" fill="#F5C5A3"/>
  <rect x="18" y="10" width="2" height="2" fill="#4A8B5C"/>
  <rect x="20" y="10" width="2" height="2" fill="#F5C5A3"/>
  <rect x="22" y="10" width="2" height="2" fill="#5C2E00"/>
  <rect x="24" y="10" width="2" height="2" fill="#8B4513"/>

  <!-- Face row 3 - nose area -->
  <rect x="4" y="12" width="2" height="2" fill="#8B4513"/>
  <rect x="6" y="12" width="2" height="2" fill="#5C2E00"/>
  <rect x="8" y="12" width="2" height="2" fill="#F5C5A3"/>
  <rect x="10" y="12" width="2" height="2" fill="#F5C5A3"/>
  <rect x="12" y="12" width="2" height="2" fill="#F5C5A3"/>
  <rect x="14" y="12" width="2" height="2" fill="#E8A882"/>
  <rect x="16" y="12" width="2" height="2" fill="#F5C5A3"/>
  <rect x="18" y="12" width="2" height="2" fill="#F5C5A3"/>
  <rect x="20" y="12" width="2" height="2" fill="#F5C5A3"/>
  <rect x="22" y="12" width="2" height="2" fill="#5C2E00"/>
  <rect x="24" y="12" width="2" height="2" fill="#8B4513"/>

  <!-- Blush + smile -->
  <rect x="4" y="14" width="2" height="2" fill="#8B4513"/>
  <rect x="6" y="14" width="2" height="2" fill="#5C2E00"/>
  <rect x="8" y="14" width="2" height="2" fill="#F5C5A3"/>
  <rect x="10" y="14" width="2" height="2" fill="#FFB6C1"/>
  <rect x="12" y="14" width="2" height="2" fill="#F5C5A3"/>
  <rect x="14" y="14" width="2" height="2" fill="#CC6666"/>
  <rect x="16" y="14" width="2" height="2" fill="#F5C5A3"/>
  <rect x="18" y="14" width="2" height="2" fill="#FFB6C1"/>
  <rect x="20" y="14" width="2" height="2" fill="#F5C5A3"/>
  <rect x="22" y="14" width="2" height="2" fill="#5C2E00"/>
  <rect x="24" y="14" width="2" height="2" fill="#8B4513"/>

  <!-- Chin -->
  <rect x="4" y="16" width="2" height="2" fill="#8B4513"/>
  <rect x="6" y="16" width="2" height="2" fill="#8B4513"/>
  <rect x="8" y="16" width="2" height="2" fill="#F5C5A3"/>
  <rect x="10" y="16" width="2" height="2" fill="#F5C5A3"/>
  <rect x="12" y="16" width="2" height="2" fill="#F5C5A3"/>
  <rect x="14" y="16" width="2" height="2" fill="#F5C5A3"/>
  <rect x="16" y="16" width="2" height="2" fill="#F5C5A3"/>
  <rect x="18" y="16" width="2" height="2" fill="#F5C5A3"/>
  <rect x="20" y="16" width="2" height="2" fill="#F5C5A3"/>
  <rect x="22" y="16" width="2" height="2" fill="#8B4513"/>
  <rect x="24" y="16" width="2" height="2" fill="#8B4513"/>

  <!-- Long hair flowing down sides -->
  <rect x="2" y="10" width="2" height="2" fill="#8B4513"/>
  <rect x="2" y="12" width="2" height="2" fill="#8B4513"/>
  <rect x="2" y="14" width="2" height="2" fill="#A0522D"/>
  <rect x="2" y="16" width="2" height="2" fill="#A0522D"/>
  <rect x="2" y="18" width="2" height="2" fill="#A0522D"/>
  <rect x="2" y="20" width="2" height="2" fill="#C47A4A"/>
  <rect x="4" y="18" width="2" height="2" fill="#8B4513"/>
  <rect x="4" y="20" width="2" height="2" fill="#A0522D"/>
  <rect x="4" y="22" width="2" height="2" fill="#C47A4A"/>

  <rect x="26" y="10" width="2" height="2" fill="#8B4513"/>
  <rect x="26" y="12" width="2" height="2" fill="#8B4513"/>
  <rect x="26" y="14" width="2" height="2" fill="#A0522D"/>
  <rect x="26" y="16" width="2" height="2" fill="#A0522D"/>
  <rect x="26" y="18" width="2" height="2" fill="#A0522D"/>
  <rect x="26" y="20" width="2" height="2" fill="#C47A4A"/>
  <rect x="24" y="18" width="2" height="2" fill="#8B4513"/>
  <rect x="24" y="20" width="2" height="2" fill="#A0522D"/>
  <rect x="24" y="22" width="2" height="2" fill="#C47A4A"/>

  <!-- Neck -->
  <rect x="12" y="18" width="2" height="2" fill="#F5C5A3"/>
  <rect x="14" y="18" width="2" height="2" fill="#F5C5A3"/>
  <rect x="16" y="18" width="2" height="2" fill="#F5C5A3"/>

  <!-- Green striped top -->
  <rect x="6" y="20" width="2" height="2" fill="#6B8E23"/>
  <rect x="8" y="20" width="2" height="2" fill="#3CB371"/>
  <rect x="10" y="20" width="2" height="2" fill="#6B8E23"/>
  <rect x="12" y="20" width="2" height="2" fill="#3CB371"/>
  <rect x="14" y="20" width="2" height="2" fill="#6B8E23"/>
  <rect x="16" y="20" width="2" height="2" fill="#3CB371"/>
  <rect x="18" y="20" width="2" height="2" fill="#6B8E23"/>
  <rect x="20" y="20" width="2" height="2" fill="#3CB371"/>
  <rect x="22" y="20" width="2" height="2" fill="#6B8E23"/>

  <rect x="6" y="22" width="2" height="2" fill="#3CB371"/>
  <rect x="8" y="22" width="2" height="2" fill="#228B22"/>
  <rect x="10" y="22" width="2" height="2" fill="#3CB371"/>
  <rect x="12" y="22" width="2" height="2" fill="#228B22"/>
  <rect x="14" y="22" width="2" height="2" fill="#3CB371"/>
  <rect x="16" y="22" width="2" height="2" fill="#228B22"/>
  <rect x="18" y="22" width="2" height="2" fill="#3CB371"/>
  <rect x="20" y="22" width="2" height="2" fill="#228B22"/>
  <rect x="22" y="22" width="2" height="2" fill="#3CB371"/>

  <!-- Brown cardigan sides -->
  <rect x="6" y="20" width="2" height="2" fill="#8B7355"/>
  <rect x="6" y="22" width="2" height="2" fill="#8B7355"/>
  <rect x="22" y="20" width="2" height="2" fill="#8B7355"/>
  <rect x="22" y="22" width="2" height="2" fill="#8B7355"/>

  <rect x="6" y="24" width="2" height="2" fill="#8B7355"/>
  <rect x="8" y="24" width="2" height="2" fill="#6B8E23"/>
  <rect x="10" y="24" width="2" height="2" fill="#3CB371"/>
  <rect x="12" y="24" width="2" height="2" fill="#6B8E23"/>
  <rect x="14" y="24" width="2" height="2" fill="#3CB371"/>
  <rect x="16" y="24" width="2" height="2" fill="#6B8E23"/>
  <rect x="18" y="24" width="2" height="2" fill="#3CB371"/>
  <rect x="20" y="24" width="2" height="2" fill="#6B8E23"/>
  <rect x="22" y="24" width="2" height="2" fill="#8B7355"/>
</svg>
